<?xml version="1.0" encoding="iso-8859-1"?>
<!-- Generator: Adobe Illustrator 19.0.0, SVG Export Plug-In . SVG Version: 6.00 Build 0)  -->
<svg version="1.1" id="Layer_1" xmlns="http://www.w3.org/2000/svg" xmlns:xlink="http://www.w3.org/1999/xlink" x="0px" y="0px"
	 viewBox="0 0 496 496" style="enable-background:new 0 0 496 496;" xml:space="preserve">
<circle style="fill:#9AE8E4;" cx="248" cy="246.4" r="219.2"/>
<path style="fill:#85DDD6;" d="M248,26.4c121.6,0,219.2,98.4,219.2,219.2s-97.6,220-219.2,220"/>
<rect x="309.6" y="329.6" style="fill:#6C9193;" width="111.2" height="44.8"/>
<path style="fill:#97B6B7;" d="M389.6,354.4c-6.4-9.6-14.4-33.6,1.6-44.8c17.6-12,56.8-8,68.8-2.4L389.6,354.4z"/>
<path style="fill:#8BACAF;" d="M460,307.2l-69.6,46.4c-13.6-32,4.8-12.8,18.4-23.2C424.8,319.2,442.4,303.2,460,307.2z"/>
<path style="fill:#97B6B7;" d="M375.2,354.4c6.4-9.6,14.4-33.6-1.6-44.8c-17.6-12-56.8-8-68.8-2.4L375.2,354.4z"/>
<path style="fill:#8BACAF;" d="M304.8,307.2l69.6,46.4c13.6-32-4.8-12.8-18.4-23.2C340.8,319.2,323.2,303.2,304.8,307.2z"/>
<polygon style="fill:#847536;" points="324,365.6 65.6,365.6 65.6,292 292.8,292 "/>
<polygon style="fill:#A3924B;" points="324,365.6 65.6,365.6 65.6,292 165.6,360 "/>
<polygon style="fill:#9DB8BA;" points="169.6,352.8 216,337.6 239.2,347.2 322.4,356.8 312,304.8 217.6,284.8 180,290.4 163.2,340 
	"/>
<path style="fill:#C0DCE2;" d="M169.6,352.8c12-21.6,25.6-70.4-10.4-92c-37.6-23.2-116.8-9.6-141.6,4L169.6,352.8z"/>
<path style="fill:#D0EBEF;" d="M160,260.8c-37.6-23.2-116.8-9.6-141.6,4"/>
<path style="fill:#ABCACE;" d="M19.2,265.6L168,352c23.2-68-12-26.4-41.6-44.8C94.4,286.4,56,255.2,19.2,265.6z"/>
<path style="fill:#55797C;" d="M45.6,273.6c40.8,24,4.8,7.2,3.2,9.6c-1.6,3.2,4,8.8-8.8,0.8c-13.6-8-23.2-16.8-21.6-19.2
	C20,262.4,32,265.6,45.6,273.6z"/>
<path style="fill:#C0DCE2;" d="M216,337.6c16-19.2,37.6-64.8,6.4-92.8c-32.8-28.8-112.8-29.6-140-20.8L216,337.6z"/>
<path style="fill:#D0EBEF;" d="M222.4,245.6c-32.8-29.6-112.8-30.4-140-21.6"/>
<path style="fill:#ABCACE;" d="M83.2,224.8L214.4,336c34.4-62.4-7.2-28-32.8-51.2C153.6,259.2,121.6,221.6,83.2,224.8z"/>
<path style="fill:#55797C;" d="M108,238.4c36,31.2,6.4,9.6,0.8,9.6c-3.2,0-8.8,0-8.8-0.8c-11.2-10.4-20-20-17.6-23.2
	C84.8,222.4,96,228,108,238.4z"/>
<path style="fill:#C0DCE2;" d="M239.2,347.2c24-5.6,68.8-29.6,60-71.2c-9.6-43.2-73.6-91.2-100.8-100L239.2,347.2z"/>
<path style="fill:#D0EBEF;" d="M299.2,276c-9.6-43.2-73.6-91.2-100.8-100"/>
<path style="fill:#ABCACE;" d="M198.4,177.6l40,167.2c64.8-30.4,10.4-27.2,4-60.8C235.2,246.4,231.2,196.8,198.4,177.6z"/>
<path style="fill:#55797C;" d="M211.2,202.4c19.2,56-2.4,35.2-6.4,31.2c-4.8-4.8-5.6-27.2-5.6-28c0-21.6-4-28-0.8-28.8
	C201.6,176,205.6,188,211.2,202.4z"/>
<path style="fill:#C0DCE2;" d="M321.6,359.2c-14.4-14.4-37.6-49.6-13.6-76c24.8-27.2,90.4-35.2,113.6-30.4L321.6,359.2z"/>
<path style="fill:#ABCACE;" d="M420.8,253.6l-97.6,104c-34.4-48,3.2-24,22.4-45.6C366.4,288,388.8,254.4,420.8,253.6z"/>
<polygon style="fill:#C9B871;" points="68,356.8 44.8,356.8 44.8,277.6 68,285.6 "/>
<polyline style="fill:#B2A15B;" points="44.8,356.8 44.8,277.6 68,285.6 "/>
<g>
	<rect x="16" y="375.2" style="fill:#496066;" width="36.8" height="15.2"/>
	<rect x="23.2" y="368.8" style="fill:#496066;" width="36.8" height="15.2"/>
	<rect x="30.4" y="362.4" style="fill:#496066;" width="36.8" height="15.2"/>
</g>
<g>
	<polygon style="fill:#647A82;" points="453.6,391.2 406.4,391.2 406.4,372.8 439.2,372.8 	"/>
	<rect x="41.6" y="356.8" style="fill:#647A82;" width="338.4" height="64.8"/>
</g>
<polygon style="fill:#496066;" points="408,421.6 380,421.6 380,356.8 408,372.8 "/>
<rect y="381.6" style="fill:#6CB7D8;" width="496" height="88"/>
<rect y="421.6" style="fill:#36A3C9;" width="496" height="48"/>
<g>
	<path style="fill:#94D4EA;" d="M152,399.2c0,2.4-1.6,4-4,4H21.6c-2.4,0-4-1.6-4-4l0,0c0-2.4,1.6-4,4-4h125.6
		C149.6,394.4,152,396.8,152,399.2L152,399.2z"/>
	<path style="fill:#94D4EA;" d="M478.4,399.2c0,2.4-1.6,4-4,4H348c-2.4,0-4-1.6-4-4l0,0c0-2.4,1.6-4,4-4h125.6
		C476.8,394.4,478.4,396.8,478.4,399.2L478.4,399.2z"/>
	<path style="fill:#94D4EA;" d="M190.4,399.2c0,2.4-1.6,4-4,4h-17.6c-2.4,0-4-1.6-4-4l0,0c0-2.4,1.6-4,4-4h17.6
		C188.8,394.4,190.4,396.8,190.4,399.2L190.4,399.2z"/>
	<path style="fill:#94D4EA;" d="M325.6,399.2c0,2.4-1.6,4-4,4H304c-2.4,0-4-1.6-4-4l0,0c0-2.4,1.6-4,4-4h17.6
		C323.2,394.4,325.6,396.8,325.6,399.2L325.6,399.2z"/>
	<path style="fill:#94D4EA;" d="M233.6,399.2c0,2.4-1.6,4-4,4H228c-2.4,0-4-1.6-4-4l0,0c0-2.4,1.6-4,4-4h1.6
		C232,394.4,233.6,396.8,233.6,399.2L233.6,399.2z"/>
	<path style="fill:#94D4EA;" d="M274.4,399.2c0,2.4-1.6,4-4,4h-1.6c-2.4,0-4-1.6-4-4l0,0c0-2.4,1.6-4,4-4h1.6
		C272.8,394.4,274.4,396.8,274.4,399.2L274.4,399.2z"/>
</g>
<g>
	<path style="fill:#E9F4F2;" d="M204.8,104.8c-0.8-0.8-1.6-0.8-2.4-1.6c0-0.8,0-0.8,0-1.6c0-11.2-8.8-20-20-20
		c-8,0-14.4,4.8-17.6,11.2c-0.8,0-1.6,0-2.4,0c-2.4,0-4,0.8-6.4,1.6c-1.6-0.8-3.2-1.6-4.8-1.6c-5.6,0-9.6,4.8-9.6,9.6v0.8
		c-4,0.8-7.2,4.8-7.2,9.6c0,5.6,4.8,9.6,9.6,9.6c3.2,0,6.4-1.6,8-4c1.6,1.6,4,3.2,7.2,3.2c0.8,8,6.4,13.6,14.4,13.6
		c6.4,0,11.2-4,13.6-8.8c2.4,4,7.2,7.2,12.8,7.2c8,0,14.4-6.4,14.4-14.4C214.4,112.8,210.4,107.2,204.8,104.8z"/>
	<path style="fill:#E9F4F2;" d="M425.6,88c-0.8-0.8-1.6-0.8-2.4-1.6c0-0.8,0-0.8,0-1.6c0-11.2-8.8-20-20-20c-8,0-14.4,4.8-17.6,11.2
		c-0.8,0-1.6,0-2.4,0c-2.4,0-4,0.8-6.4,1.6c-1.6-0.8-3.2-1.6-4.8-1.6c-5.6,0-9.6,4.8-9.6,9.6v0.8c-4,0.8-7.2,4.8-7.2,9.6
		c0,5.6,4.8,9.6,9.6,9.6c3.2,0,6.4-1.6,8-4c1.6,1.6,4,3.2,7.2,3.2c0.8,8,6.4,13.6,14.4,13.6c6.4,0,11.2-4,13.6-8.8
		c2.4,4,7.2,7.2,12.8,7.2c8,0,14.4-6.4,14.4-14.4C435.2,95.2,431.2,89.6,425.6,88z"/>
	<path style="fill:#E9F4F2;" d="M306.4,152.8c0.8,0,0.8-0.8,1.6-0.8v-0.8c1.6-6.4,8-11.2,15.2-9.6c4.8,0.8,8,4.8,9.6,8.8
		c0.8,0,0.8,0,1.6,0c1.6,0,2.4,0.8,3.2,1.6c0.8,0,1.6-0.8,3.2,0c3.2,0.8,5.6,4,4.8,7.2c0,0,0,0,0,0.8c2.4,1.6,4,4,3.2,6.4
		c-0.8,3.2-4,5.6-7.2,4.8c-2.4-0.8-3.2-1.6-4-4c-1.6,0.8-3.2,1.6-4.8,1.6c-1.6,4.8-5.6,7.2-10.4,6.4c-4-0.8-6.4-4-7.2-7.2
		c-2.4,2.4-5.6,3.2-8.8,2.4c-4.8-0.8-8-5.6-7.2-11.2C299.2,156,302.4,152.8,306.4,152.8z"/>
</g>
<g>
</g>
<g>
</g>
<g>
</g>
<g>
</g>
<g>
</g>
<g>
</g>
<g>
</g>
<g>
</g>
<g>
</g>
<g>
</g>
<g>
</g>
<g>
</g>
<g>
</g>
<g>
</g>
<g>
</g>
</svg>
